<svg width="36" height="23" viewBox="0 0 36 23" fill="none" xmlns="http://www.w3.org/2000/svg">
<path fill-rule="evenodd" clip-rule="evenodd" d="M23.3667 1.44666C23.4856 1.13767 23.7223 0.888502 24.0248 0.753829C24.3273 0.619156 24.6708 0.609985 24.98 0.728329L34.8834 4.52833C35.0367 4.58721 35.177 4.67576 35.2962 4.78891C35.4153 4.90206 35.511 5.03758 35.5777 5.18774C35.6444 5.33789 35.6809 5.49972 35.685 5.66398C35.6891 5.82823 35.6608 5.99169 35.6017 6.145L31.8017 16.045C31.7461 16.2025 31.6595 16.3472 31.5471 16.4706C31.4346 16.5941 31.2986 16.6938 31.147 16.7638C30.9954 16.8338 30.8313 16.8727 30.6644 16.8782C30.4975 16.8838 30.3312 16.8558 30.1753 16.796C30.0194 16.7362 29.877 16.6458 29.7567 16.53C29.6363 16.4143 29.5403 16.2756 29.4744 16.1222C29.4085 15.9688 29.374 15.8037 29.373 15.6367C29.372 15.4697 29.4044 15.3042 29.4684 15.15L32.185 8.065L30.375 8.87166C26.4448 10.6138 23.2363 13.6592 21.2917 17.4933C21.2022 17.6692 21.0723 17.8215 20.9127 17.9375C20.753 18.0536 20.5682 18.1302 20.3732 18.1611C20.1783 18.192 19.9788 18.1763 19.7911 18.1152C19.6034 18.0542 19.4329 17.9496 19.2934 17.81L13 11.52L2.63335 21.8867C2.39749 22.1143 2.08168 22.2401 1.75393 22.2371C1.42619 22.2341 1.11273 22.1025 0.881081 21.8706C0.649429 21.6387 0.518116 21.3252 0.515423 20.9974C0.512731 20.6697 0.638875 20.354 0.866686 20.1183L12.1167 8.86833C12.3511 8.63424 12.6688 8.50276 13 8.50276C13.3313 8.50276 13.649 8.63424 13.8834 8.86833L19.8934 14.8783C22.1352 11.2189 25.4368 8.32766 29.36 6.58833L31.17 5.78333L24.085 3.06333C23.9315 3.00461 23.791 2.91617 23.6717 2.8031C23.5524 2.69002 23.4565 2.55452 23.3897 2.40435C23.3228 2.25418 23.2862 2.09229 23.282 1.92796C23.2777 1.76363 23.306 1.60007 23.365 1.44666H23.3667Z" fill="black"/>
</svg>
